<?xml version="1.0" standalone="no"?>
<!DOCTYPE svg PUBLIC "-//W3C//DTD SVG 20010904//EN"
 "http://www.w3.org/TR/2001/REC-SVG-20010904/DTD/svg10.dtd">
<svg version="1.0" xmlns="http://www.w3.org/2000/svg"
 width="415.000000pt" height="415.000000pt" viewBox="0 0 415.000000 415.000000"
 preserveAspectRatio="xMidYMid meet">

<g transform="translate(0.000000,415.000000) scale(0.100000,-0.100000)"
fill="#000000" stroke="none">
<path d="M0 2075 l0 -2075 310 0 c171 0 310 2 310 5 0 3 -16 45 -35 93 -55
134 -74 224 -75 343 -1 111 7 150 39 202 26 42 208 220 284 277 38 28 55 46
48 53 -13 13 28 75 68 102 16 11 50 35 76 54 37 26 57 34 99 35 68 2 129 38
228 134 53 51 82 73 93 68 18 -7 49 -72 42 -90 -3 -7 -30 -18 -61 -25 -31 -7
-56 -16 -56 -20 0 -10 203 -107 285 -136 73 -26 365 -154 382 -167 6 -5 22 -6
35 -3 16 3 33 -3 56 -23 28 -23 36 -40 52 -111 10 -46 24 -87 31 -92 9 -5 -4
-12 -34 -20 -26 -6 -50 -15 -53 -20 -9 -15 -24 -10 -24 7 0 9 -20 38 -44 66
-24 27 -48 67 -55 88 -9 32 -18 41 -49 51 -65 21 -215 91 -260 120 -86 58 -80
42 80 -198 62 -92 116 -171 121 -174 5 -4 -15 -12 -44 -19 -51 -13 -138 -64
-122 -72 20 -11 92 -7 167 7 198 39 655 164 750 204 26 12 60 21 76 21 23 0
166 -83 281 -164 22 -15 25 -14 51 10 l27 27 5 -24 c3 -13 15 -82 26 -154 12
-72 30 -170 41 -220 10 -49 20 -101 20 -115 1 -16 3 -19 6 -8 2 10 9 18 15 18
5 0 8 -6 5 -12 -2 -7 0 -21 5 -32 7 -12 6 -22 -1 -29 -8 -8 -11 -7 -11 3 0 7
-3 11 -6 8 -3 -4 2 -20 11 -37 l16 -31 469 0 470 1 0 2074 0 2075 -2075 0
-2075 0 0 -2075z m584 1740 c-1 -16 -5 -69 -9 -117 l-7 -87 -91 -3 -92 -3 0
-85 0 -85 78 -3 77 -3 0 -114 0 -114 -77 -3 -78 -3 -3 -197 -2 -197 -38 -7
c-20 -3 -68 -12 -105 -20 -38 -8 -75 -14 -83 -14 -12 0 -14 77 -14 538 0 296
3 542 7 546 4 3 104 5 222 4 l216 -3 -1 -30z m3441 -120 l0 -130 -85 -5 -85
-5 0 -65 0 -65 73 -3 72 -3 0 -104 0 -105 -70 0 -70 0 0 -90 0 -89 83 -3 82
-3 3 -119 3 -119 -133 8 c-73 4 -164 10 -203 14 l-70 6 -3 488 c-2 385 0 489
10 492 19 7 317 33 358 31 l35 -1 0 -130z m87 111 c-2 -11 1 -15 7 -11 7 3 8
0 5 -9 -7 -19 -24 -21 -24 -3 0 9 -3 8 -9 -2 -10 -15 -31 -7 -31 13 0 18 22
37 40 33 8 -1 14 -11 12 -21z m-1330 -461 c3 -247 3 -454 -1 -458 -5 -4 -48
-11 -97 -14 l-89 -5 -74 181 c-41 99 -75 181 -77 181 -2 0 -1 -74 3 -165 l6
-165 -56 0 c-55 0 -56 1 -67 35 -6 19 -22 43 -34 52 -12 10 -21 23 -19 30 2 6
0 14 -6 17 -6 4 -8 13 -5 21 3 7 -4 27 -16 43 -18 24 -20 34 -11 50 6 11 11
31 11 44 -1 23 -1 23 -21 -4 -20 -28 -49 -38 -49 -18 0 6 12 21 27 34 27 23
27 24 30 172 1 82 3 199 3 261 l0 112 58 12 c31 7 74 12 95 13 l37 1 75 -185
c83 -209 83 -209 64 35 -7 79 -9 151 -6 160 6 13 22 15 109 13 l103 -3 7 -450z
m-1829 421 c132 -48 189 -178 191 -436 1 -295 -67 -431 -232 -462 -115 -21
-223 23 -276 114 -38 65 -56 150 -63 288 -10 220 23 358 106 440 25 25 62 51
81 57 49 15 148 15 193 -1z m622 -21 c86 -53 145 -168 145 -280 0 -48 2 -52
33 -68 18 -9 25 -16 16 -16 -9 -1 -22 -8 -29 -16 -21 -25 5 -43 76 -50 61 -7
64 -8 49 -25 -9 -10 -44 -23 -78 -29 -189 -37 -299 -73 -362 -118 -45 -33 -47
-37 -28 -44 19 -7 21 -12 13 -39 -12 -42 -64 -132 -121 -210 -51 -71 -69 -120
-68 -190 l0 -45 13 30 c14 31 14 32 34 -30 9 -26 11 -20 11 41 1 81 29 171 79
250 50 80 177 166 197 134 4 -6 20 0 39 15 30 23 34 24 40 8 6 -14 10 -12 25
13 47 75 183 188 241 200 54 12 55 13 20 49 -19 19 -42 37 -52 41 -15 5 -18
17 -18 89 l0 84 -62 3 -63 3 -3 109 c-1 60 1 113 5 117 4 4 107 -1 228 -12
121 -10 228 -19 238 -19 15 0 17 -12 17 -120 l0 -120 -60 0 -59 0 -3 -117 c-3
-114 -4 -118 -25 -121 -26 -4 -32 -22 -7 -22 33 0 2 -17 -53 -29 -66 -14 -203
-78 -248 -116 l-30 -25 30 6 c17 3 53 14 81 24 97 35 129 -1 70 -78 -20 -25
-36 -51 -36 -57 0 -7 -16 -33 -35 -58 -34 -45 -47 -93 -23 -85 7 3 40 57 73
120 68 132 101 164 188 182 28 7 33 -3 28 -56 -1 -9 3 -19 9 -23 5 -3 10 -10
10 -14 0 -10 -121 -110 -201 -166 -86 -60 -187 -152 -205 -187 -9 -18 -18 -67
-21 -117 -3 -47 -5 -88 -6 -91 -3 -12 25 -50 44 -60 26 -14 41 -2 84 65 29 46
43 95 62 225 3 21 16 43 31 55 14 11 57 46 95 77 77 62 106 76 108 50 2 -23 2
-24 -7 -47 -7 -17 -6 -18 8 -7 35 28 26 -8 -13 -54 -55 -66 -70 -99 -114 -239
-20 -65 -50 -147 -67 -182 -26 -56 -28 -65 -14 -78 23 -23 29 -19 66 40 19 30
38 54 42 55 11 0 18 -73 10 -115 -9 -50 3 -175 24 -239 28 -87 -7 -132 -83
-107 -26 9 -46 9 -63 3 l-25 -10 28 -11 c16 -6 32 -9 37 -6 5 3 18 -6 29 -21
11 -14 28 -25 38 -24 33 4 42 0 53 -20 9 -16 6 -22 -20 -35 -35 -18 -151 -13
-229 11 -52 15 -63 12 -29 -9 27 -18 160 -47 215 -47 49 0 78 -16 42 -24 -13
-3 -42 -9 -64 -13 -51 -11 -59 -38 -14 -47 17 -3 49 -6 70 -6 44 0 59 -18 59
-74 0 -27 -6 -40 -24 -52 -25 -16 -115 -35 -173 -37 -45 -1 -32 -13 53 -52 56
-26 74 -39 74 -54 0 -22 -25 -106 -39 -132 -23 -42 16 -106 82 -134 20 -8 38
-19 42 -25 6 -10 67 29 93 60 11 13 12 13 10 0 -2 -8 2 -14 9 -13 23 5 -7 -50
-74 -134 l-34 -42 -67 32 c-226 109 -290 159 -367 286 -25 42 -56 91 -69 109
-16 21 -28 59 -36 105 -18 116 -94 433 -106 446 -3 3 -10 -1 -16 -7 -22 -22
-37 -13 -93 58 -63 79 -113 179 -95 190 6 4 10 26 8 51 -3 38 -6 44 -25 43
-18 0 -23 5 -23 23 0 24 36 41 65 29 21 -8 19 2 -15 59 -82 140 -94 174 -98
281 -2 56 1 125 7 155 8 36 8 56 1 63 -12 12 -14 878 -3 890 5 4 85 6 179 4
170 -3 171 -3 219 -33z m1501 -442 l4 -443 -23 -5 c-13 -4 -68 -5 -123 -3
l-99 3 -3 448 -2 448 121 -3 121 -3 4 -442z m514 312 l0 -115 -65 0 -65 0 0
-335 0 -336 -117 3 -118 3 0 318 0 317 -62 0 -63 0 0 120 0 120 58 1 c31 1
107 5 167 9 61 3 145 7 188 8 l77 2 0 -115z m-1456 -404 c-2 -3 -12 3 -22 13
-16 17 -16 18 5 5 12 -7 20 -15 17 -18z m122 -196 c-11 -8 -25 -15 -30 -15 -6
1 0 7 14 15 32 19 40 18 16 0z m15 -179 c-22 -36 -27 -51 -12 -42 16 10 -30
-148 -56 -194 -14 -25 -37 -65 -51 -89 l-25 -44 36 7 c21 4 37 3 37 -1 0 -13
-135 -83 -159 -83 -19 0 -14 8 31 54 46 47 56 64 71 123 9 37 25 100 36 138
10 39 22 87 25 107 4 20 15 47 26 60 l19 23 9 -25 10 -25 8 30 c6 21 9 25 12
12 2 -9 -6 -32 -17 -51z m69 14 c-6 -11 -16 -18 -22 -14 -7 4 -5 10 6 16 9 5
16 17 17 26 0 9 3 12 5 5 3 -7 0 -21 -6 -33z m-102 -554 c-7 -8 -15 -12 -17
-11 -5 6 10 25 20 25 5 0 4 -6 -3 -14z m1 -136 c8 -24 6 -34 -8 -51 -24 -30
-47 -19 -60 27 -12 45 -11 48 27 51 25 2 32 -3 41 -27z m679 -556 c12 -2 22
-10 22 -18 0 -7 6 -19 14 -25 11 -10 15 -8 18 5 3 16 4 16 20 1 9 -9 18 -21
20 -27 2 -6 44 -17 93 -24 50 -8 148 -33 219 -56 108 -35 135 -48 170 -82 23
-22 36 -42 30 -44 -15 -6 -1 -95 20 -127 9 -13 13 -27 9 -30 -3 -4 -2 -7 4 -7
6 0 16 -13 23 -30 7 -16 16 -30 21 -30 5 0 9 -15 9 -33 0 -18 6 -41 13 -52 8
-12 15 -58 17 -115 2 -52 4 -106 4 -120 1 -14 4 -29 7 -35 4 -5 6 -43 5 -84
l-2 -73 20 23 c14 18 18 19 13 6 -9 -25 24 -147 40 -147 9 0 10 -7 4 -22 -8
-23 1 -48 27 -76 6 -7 12 -21 11 -30 0 -14 -2 -13 -9 3 -6 14 -9 15 -9 5 -1
-9 6 -26 15 -38 8 -12 13 -26 10 -31 -3 -5 1 -12 10 -15 8 -3 13 -10 10 -15
-4 -5 0 -11 6 -14 10 -3 10 -7 -1 -21 -8 -9 -10 -20 -6 -24 4 -4 10 -1 12 6 6
16 23 5 23 -14 0 -8 9 -28 21 -43 20 -27 20 -30 4 -55 -24 -36 -45 -34 -45 4
0 18 -5 30 -13 30 -7 0 -21 14 -30 30 -10 17 -24 30 -30 30 -14 0 -31 57 -49
164 -10 55 -16 70 -35 79 -13 5 -23 16 -23 24 0 8 -8 25 -17 40 -20 31 -63
133 -63 151 0 6 -8 20 -17 31 -10 10 -34 37 -53 60 -19 24 -47 49 -62 57 -16
8 -28 21 -28 28 0 8 -4 16 -8 18 -5 2 -20 20 -35 42 l-26 39 -21 -47 c-20 -41
-40 -60 -40 -37 0 5 -6 11 -14 14 -12 5 -14 -7 -11 -66 2 -40 7 -93 10 -119 5
-35 3 -53 -9 -70 -20 -28 -20 -45 -2 -63 8 -8 16 -49 20 -102 5 -75 3 -96 -14
-143 -12 -31 -19 -42 -16 -25 2 17 8 58 12 93 6 58 5 64 -13 68 -17 5 -22 17
-28 76 -7 73 -17 91 -75 131 -23 16 -24 22 -21 94 1 43 4 80 7 84 2 4 6 44 10
90 3 46 12 94 20 106 20 32 18 138 -5 209 -23 73 -38 142 -46 217 -5 41 -12
60 -25 67 -27 14 -30 13 -30 -12 -1 -22 -1 -23 -15 -4 -8 11 -15 18 -15 15 0
-5 26 -123 39 -173 5 -22 9 -42 9 -45 -2 -22 4 -42 17 -54 11 -11 13 -28 8
-67 -6 -49 -7 -51 -32 -45 -14 4 -27 11 -29 16 -2 5 -13 9 -25 8 -17 0 -18 -2
-7 -7 28 -13 56 -37 63 -54 5 -14 12 -15 39 -8 l33 9 -23 -19 c-19 -16 -24
-33 -31 -122 l-9 -103 1 97 c2 93 -7 136 -17 87 -3 -13 -10 -85 -17 -159 -14
-165 -13 -158 -23 -167 -4 -4 -5 28 -1 72 4 44 4 77 0 73 -4 -4 -9 -29 -12
-55 -2 -26 -5 -54 -5 -60 -2 -17 0 -18 -74 27 -36 22 -72 40 -80 40 -8 0 -22
8 -32 18 -47 46 -61 46 -178 9 -60 -20 -112 -32 -116 -29 -12 12 -27 333 -17
359 9 23 65 63 133 94 35 15 41 16 44 4 2 -8 10 -15 18 -15 10 0 14 -12 14
-38 0 -25 7 -43 20 -55 28 -24 35 -21 38 15 1 17 10 37 20 45 16 12 16 14 -2
28 -10 8 -24 12 -29 8 -6 -4 -8 0 -4 11 4 10 10 29 13 42 7 26 19 31 27 12 8
-19 28 13 21 34 -6 20 5 68 16 68 9 0 24 -49 21 -68 -3 -20 19 -42 42 -42 21
0 21 0 -1 21 -24 21 -21 39 5 39 13 0 13 3 3 15 -10 12 -10 21 -2 40 11 23 13
24 45 10 39 -16 47 -12 47 22 0 13 4 22 9 19 5 -3 11 9 13 28 4 35 -13 61 -29
45 -5 -5 -24 -11 -41 -12 -18 -1 -32 -8 -32 -14 0 -26 -38 -12 -96 35 l-60 48
4 -34 c3 -26 1 -33 -8 -27 -7 4 -15 3 -19 -3 -3 -6 -19 -8 -34 -5 -21 4 -26
10 -21 22 3 9 9 26 11 37 3 12 14 26 25 31 20 9 180 7 226 -3z m-373 -54 c4
-6 -5 -10 -19 -10 -14 0 -26 5 -26 10 0 6 9 10 19 10 11 0 23 -4 26 -10z m255
-56 c0 -8 -4 -14 -10 -14 -5 0 -10 9 -10 21 0 11 5 17 10 14 6 -3 10 -13 10
-21z m170 6 c0 -5 -2 -10 -4 -10 -3 0 -8 5 -11 10 -3 6 -1 10 4 10 6 0 11 -4
11 -10z m78 -110 l0 -35 -8 30 c-4 17 -8 41 -8 55 -1 23 0 23 8 5 5 -11 8 -36
8 -55z m-908 -443 c-14 -8 -27 -12 -30 -10 -7 6 23 23 40 23 8 0 4 -6 -10 -13z
m907 -194 c-2 -16 -4 -5 -4 22 0 28 2 40 4 28 2 -13 2 -35 0 -50z m200 -195
c-3 -7 -5 -2 -5 12 0 14 2 19 5 13 2 -7 2 -19 0 -25z m510 -130 c-3 -8 -6 -5
-6 6 -1 11 2 17 5 13 3 -3 4 -12 1 -19z m-517 -247 c0 -11 -4 -22 -9 -25 -15
-10 -29 18 -24 46 4 23 7 25 19 13 8 -7 14 -23 14 -34z m710 -123 c0 -7 -6 -4
-12 7 -6 11 -16 25 -22 30 -13 12 -56 90 -56 102 0 4 20 -22 45 -59 25 -37 45
-73 45 -80z m-150 42 c0 -5 -4 -10 -10 -10 -5 0 -10 5 -10 10 0 6 5 10 10 10
6 0 10 -4 10 -10z"/>
<path d="M4071 3794 c0 -11 3 -14 6 -6 3 7 2 16 -1 19 -3 4 -6 -2 -5 -13z"/>
<path d="M845 3580 c-29 -48 -26 -493 4 -523 32 -32 44 59 39 311 -2 160 -6
194 -19 208 -12 12 -19 13 -24 4z"/>
<path d="M1410 3568 c-1 -8 -2 -224 -1 -231 1 -4 10 -3 20 3 44 23 55 167 16
210 -15 17 -34 26 -35 18z"/>
<path d="M1697 3333 c-14 -13 -6 -23 18 -23 28 0 34 15 9 24 -19 7 -19 7 -27
-1z"/>
<path d="M2040 3295 c0 -8 4 -15 10 -15 5 0 7 7 4 15 -4 8 -8 15 -10 15 -2 0
-4 -7 -4 -15z"/>
<path d="M1620 3005 c0 -8 5 -15 10 -15 6 0 10 7 10 15 0 8 -4 15 -10 15 -5 0
-10 -7 -10 -15z"/>
<path d="M1513 2788 c-6 -7 -30 -58 -54 -113 -43 -97 -44 -102 -42 -195 2 -52
7 -108 12 -125 9 -28 9 -26 10 20 2 65 13 85 29 50 18 -38 28 -24 36 49 3 35
13 86 21 112 16 53 21 214 6 214 -5 0 -13 -6 -18 -12z"/>
<path d="M1247 2557 c-11 -29 -9 -43 4 -30 6 6 9 19 7 29 -3 18 -4 18 -11 1z"/>
<path d="M1311 2474 c0 -11 3 -14 6 -6 3 7 2 16 -1 19 -3 4 -6 -2 -5 -13z"/>
<path d="M1574 2412 c-17 -12 -64 -78 -64 -91 0 -8 5 -9 19 -1 21 11 120 14
145 4 12 -5 6 -11 -24 -26 -26 -13 -39 -26 -38 -37 2 -9 -3 -15 -10 -13 -8 1
-11 -2 -8 -7 4 -5 1 -11 -6 -13 -6 -2 -8 -10 -4 -16 11 -18 23 -15 29 8 3 13
13 20 29 20 18 0 20 -2 9 -9 -20 -13 3 -41 34 -41 23 0 55 28 55 48 0 15 13
15 28 0 18 -18 15 -36 -8 -43 -26 -8 -16 -25 15 -25 25 0 51 32 40 50 -9 15
14 21 36 9 21 -11 22 -10 15 21 -3 18 -6 50 -6 72 0 22 -5 40 -12 42 -7 2 -63
13 -124 24 -60 12 -117 24 -125 26 -8 3 -19 2 -25 -2z m76 -142 c-20 -13 -33
-13 -25 0 3 6 14 10 23 10 15 0 15 -2 2 -10z"/>
<path d="M1332 2183 c-7 -2 -17 -14 -23 -25 -9 -17 -5 -26 27 -59 22 -23 48
-39 61 -39 31 0 29 12 -8 39 -24 18 -28 25 -19 36 8 10 8 19 0 34 -11 21 -16
23 -38 14z"/>
<path d="M2992 1420 c0 -14 2 -19 5 -12 2 6 2 18 0 25 -3 6 -5 1 -5 -13z"/>
<path d="M3001 1354 c0 -11 3 -14 6 -6 3 7 2 16 -1 19 -3 4 -6 -2 -5 -13z"/>
<path d="M2998 1221 c-6 -22 -10 -23 -60 -17 l-53 6 48 -24 c47 -23 88 -25 86
-2 -1 6 -4 22 -8 36 l-7 25 -6 -24z"/>
<path d="M3021 1074 c0 -11 3 -14 6 -6 3 7 2 16 -1 19 -3 4 -6 -2 -5 -13z"/>
<path d="M3011 995 c0 -11 -4 -31 -7 -45 -5 -19 -4 -22 5 -14 7 6 11 26 8 45
-2 19 -5 25 -6 14z"/>
<path d="M2996 893 c10 -40 14 -41 14 -5 0 18 -5 32 -10 32 -6 0 -8 -11 -4
-27z"/>
<path d="M3225 484 c-4 -22 -2 -41 4 -47 8 -8 11 3 11 36 0 56 -5 60 -15 11z"/>
<path d="M3820 120 c0 -5 5 -10 10 -10 6 0 10 5 10 10 0 6 -4 10 -10 10 -5 0
-10 -4 -10 -10z"/>
<path d="M1239 1013 c22 -27 68 -77 102 -113 l61 -65 -45 60 c-58 79 -136 165
-149 165 -5 0 8 -21 31 -47z"/>
<path d="M960 922 c0 -13 41 -64 47 -58 3 3 -6 19 -21 36 -14 17 -26 27 -26
22z"/>
<path d="M1396 885 c4 -8 11 -15 16 -15 6 0 5 6 -2 15 -7 8 -14 15 -16 15 -2
0 -1 -7 2 -15z"/>
<path d="M1420 806 c0 -2 8 -10 18 -17 15 -13 16 -12 3 4 -13 16 -21 21 -21
13z"/>
<path d="M2789 691 c25 -23 17 -27 -24 -11 -24 9 -26 8 -20 -7 4 -10 20 -54
36 -97 15 -44 32 -83 36 -87 10 -10 97 15 131 37 13 9 21 22 18 30 -3 8 -1 14
5 14 18 0 29 -50 29 -133 0 -48 7 -101 16 -127 11 -32 14 -61 9 -102 -6 -48
-4 -58 8 -58 15 0 30 -37 21 -52 -9 -14 -84 -49 -94 -43 -5 3 -12 30 -15 60
-4 31 -11 58 -16 61 -5 3 -5 13 1 24 5 10 10 30 10 44 0 13 7 32 16 40 26 27
9 73 -36 96 -53 27 -56 25 -26 -14 30 -40 48 -81 38 -90 -3 -4 -12 4 -19 16
-12 22 -12 21 -13 -15 0 -37 -2 -39 -60 -64 -68 -30 -75 -41 -10 -18 63 22 71
18 21 -12 -32 -19 -60 -27 -99 -28 -39 -1 -57 -6 -64 -18 -20 -36 -149 -77
-174 -56 -10 8 -14 8 -14 0 0 -6 -6 -11 -12 -11 -7 0 -21 -12 -31 -25 -10 -14
-14 -25 -10 -25 8 0 176 52 353 108 52 16 98 28 101 26 4 -2 10 -30 13 -61 11
-91 12 -93 55 -89 21 2 43 6 50 10 6 4 11 4 11 -1 0 -4 32 -9 70 -10 l70 -3 0
29 c0 44 -19 88 -41 94 -14 4 -20 1 -18 -11 3 -31 -1 -42 -13 -42 -8 0 -14 18
-15 50 -2 28 2 50 7 50 6 0 10 -7 10 -17 0 -9 3 -14 6 -10 11 11 -29 172 -48
190 -10 10 -18 26 -18 37 0 10 -9 56 -20 102 -22 93 -31 104 -154 185 -77 50
-114 66 -77 34z m280 -625 c-2 -2 -23 -15 -46 -30 -29 -18 -40 -21 -36 -11 6
17 50 44 72 45 8 0 12 -2 10 -4z"/>
<path d="M2571 499 c-19 -7 -22 -12 -13 -21 9 -9 15 -9 23 -1 6 6 27 8 47 6
25 -3 34 -2 27 5 -16 17 -58 22 -84 11z"/>
<path d="M2785 390 c-22 -10 -48 -21 -57 -24 -23 -7 -23 -18 0 -46 l19 -23 53
19 c29 10 55 25 57 32 4 10 8 10 21 0 13 -11 14 -11 7 2 -11 21 -47 60 -54 59
-3 0 -24 -9 -46 -19z"/>
<path d="M2596 323 c-4 -5 -26 -13 -48 -18 -49 -12 -55 -24 -30 -55 l19 -23
66 23 c37 13 67 26 67 30 0 3 -7 16 -16 28 -15 22 -44 29 -58 15z"/>
<path d="M2660 321 c0 -5 5 -13 10 -16 6 -3 10 -2 10 4 0 5 -4 13 -10 16 -5 3
-10 2 -10 -4z"/>
<path d="M2808 303 c-27 -9 -48 -20 -48 -24 0 -12 8 -11 57 7 24 9 43 21 43
25 0 5 -1 9 -2 8 -2 0 -24 -7 -50 -16z"/>
<path d="M2391 243 c-12 -13 -11 -14 9 -8 15 5 20 4 16 -4 -4 -5 -31 -18 -61
-27 -30 -10 -55 -22 -55 -27 0 -13 66 -3 113 16 35 15 36 18 25 41 -13 30 -27
32 -47 9z"/>
<path d="M2595 225 c-25 -12 -26 -14 -5 -9 28 7 60 23 45 23 -5 0 -23 -6 -40
-14z"/>
<path d="M2118 143 c-33 -13 -52 -33 -30 -33 27 1 106 28 110 38 5 17 -35 14
-80 -5z"/>
<path d="M1888 93 c-16 -2 -28 -9 -28 -15 0 -6 12 -8 31 -4 17 3 40 6 50 6 11
0 19 5 19 10 0 10 -20 11 -72 3z"/>
<path d="M1092 52 c-52 -46 -44 -52 71 -51 56 1 91 4 77 6 -14 2 -29 10 -35
16 -14 17 -66 57 -75 57 -3 0 -21 -13 -38 -28z"/>
<path d="M2348 3 c12 -2 30 -2 40 0 9 3 -1 5 -23 4 -22 0 -30 -2 -17 -4z"/>
</g>
</svg>
