<?xml version="1.0" standalone="no"?>
<!DOCTYPE svg PUBLIC "-//W3C//DTD SVG 20010904//EN"
 "http://www.w3.org/TR/2001/REC-SVG-20010904/DTD/svg10.dtd">
<svg version="1.0" xmlns="http://www.w3.org/2000/svg"
 width="300.000000pt" height="300.000000pt" viewBox="0 0 300.000000 300.000000"
 preserveAspectRatio="xMidYMid meet">
<metadata>
Created by potrace 1.10, written by Peter Selinger 2001-2011
</metadata>
<g transform="translate(0.000000,300.000000) scale(0.100000,-0.100000)"
fill="#000000" stroke="none">
<path d="M1270 2864 c-180 -31 -373 -109 -532 -215 -51 -34 -95 -65 -98 -68
-3 -4 -34 -31 -68 -61 -75 -64 -192 -206 -252 -305 -65 -107 -130 -254 -144
-327 -2 -13 -9 -34 -14 -48 -32 -82 -45 -430 -22 -575 56 -355 274 -694 581
-902 194 -131 369 -200 584 -230 103 -14 381 -8 468 11 274 58 548 211 734
410 158 169 305 447 344 649 25 134 33 367 16 492 -43 323 -225 649 -485 869
-105 88 -301 199 -427 241 -163 55 -180 57 -425 60 -129 2 -246 1 -260 -1z
m497 -43 c267 -55 486 -174 683 -371 196 -195 314 -411 371 -680 32 -150 32
-391 0 -540 -59 -276 -193 -516 -393 -705 -188 -178 -404 -292 -658 -346 -149
-32 -391 -32 -540 0 -270 58 -484 174 -680 371 -196 196 -313 411 -372 683
-31 145 -31 389 0 534 126 585 585 1000 1192 1077 79 10 298 -3 397 -23z"/>
<path d="M1275 2804 c-551 -96 -985 -532 -1079 -1083 -20 -121 -21 -320 0
-442 81 -481 422 -879 887 -1034 142 -47 255 -65 417 -65 162 0 275 18 417 65
465 155 804 548 888 1029 20 115 20 337 0 452 -84 477 -428 877 -888 1029 -56
18 -144 40 -196 49 -116 20 -335 20 -446 0z m455 -21 c531 -89 961 -519 1057
-1057 21 -119 21 -333 0 -452 -97 -539 -522 -964 -1061 -1061 -119 -21 -333
-21 -452 0 -469 84 -862 424 -1014 877 -87 259 -83 581 11 847 212 601 821
954 1459 846z"/>
<path d="M1373 2713 c-18 -2 -33 -9 -33 -14 0 -6 11 -9 25 -7 13 2 25 -1 27
-7 2 -5 -17 -11 -40 -13 -39 -3 -43 -1 -38 16 6 19 5 19 -61 6 -110 -23 -136
-34 -122 -50 9 -12 16 -11 39 6 21 15 29 17 33 8 3 -10 7 -10 21 1 22 18 31 8
16 -18 -12 -24 -40 -28 -40 -6 0 8 -4 15 -10 15 -12 0 -31 -36 -23 -44 11 -11
-31 -35 -46 -27 -7 5 -27 3 -43 -3 -23 -9 -31 -8 -38 4 -10 17 6 31 27 23 17
-7 17 5 -1 22 -12 12 -20 12 -55 -3 -22 -9 -41 -21 -41 -25 0 -5 4 -6 10 -2
13 8 49 -16 43 -31 -5 -15 50 -26 58 -12 4 7 22 8 45 4 32 -7 40 -4 55 16 21
27 36 19 19 -11 -6 -13 -7 -21 -1 -21 12 0 26 20 26 40 0 23 14 40 32 40 11 0
14 -6 10 -21 -3 -12 0 -22 9 -26 8 -3 13 -12 10 -19 -8 -21 8 -17 30 7 17 19
17 22 3 32 -25 18 -25 23 -5 46 26 28 34 26 30 -6 -2 -18 -1 -20 3 -8 3 11 10
23 17 27 16 11 54 10 58 -1 2 -5 26 -22 53 -39 28 -16 49 -34 48 -39 -1 -6 18
-19 42 -29 25 -10 45 -19 45 -21 0 -2 -8 -11 -19 -22 -18 -18 -19 -18 -40 2
-11 12 -24 18 -28 14 -4 -4 8 -20 27 -36 36 -30 28 -51 -12 -31 -21 10 -21 10
2 -9 18 -15 21 -21 9 -21 -24 0 -76 28 -83 46 -4 11 -14 13 -42 8 -29 -5 -36
-4 -32 7 2 8 16 15 29 17 14 2 30 12 37 23 11 18 10 23 -15 42 -15 12 -39 22
-53 23 -22 1 -25 -3 -24 -25 1 -17 -7 -33 -23 -47 l-26 -22 22 -11 c32 -18 25
-28 -16 -25 -21 1 -39 2 -41 3 -1 1 5 12 14 26 9 14 14 28 10 32 -3 3 -6 1 -6
-6 0 -9 -9 -11 -27 -7 -26 6 -27 5 -9 -9 19 -14 19 -15 0 -21 -21 -8 -32 -16
-81 -62 -32 -29 -44 -62 -23 -62 6 0 10 -9 10 -20 0 -13 5 -18 16 -13 8 3 25
-4 37 -16 13 -11 37 -24 55 -27 26 -5 32 -11 32 -33 1 -33 25 -65 44 -58 10 4
13 16 9 44 -4 33 -2 39 19 48 17 7 22 16 20 35 -2 14 -8 27 -13 28 -5 2 -6 9
-2 15 4 6 6 26 5 44 -2 31 0 33 29 33 42 0 89 -29 89 -55 0 -11 9 -26 20 -33
17 -10 22 -9 36 14 l17 25 31 -38 c17 -20 30 -41 28 -46 -1 -4 16 -16 37 -26
l40 -17 -27 -11 c-26 -9 -25 -10 13 -9 34 1 40 -2 43 -21 3 -17 -2 -23 -16
-23 -11 0 -25 -7 -32 -15 -8 -10 -31 -15 -65 -15 -56 0 -129 -30 -140 -58 -9
-25 4 -27 28 -5 43 40 142 66 121 31 -4 -5 -11 -5 -19 2 -20 17 -28 -30 -8
-52 20 -23 42 -23 59 -1 7 10 16 15 20 11 10 -11 -15 -37 -57 -59 -46 -23 -49
-23 -49 -5 0 8 10 17 23 19 20 4 19 4 -4 6 -15 0 -32 -6 -39 -14 -7 -8 -20
-15 -30 -15 -23 0 -44 -26 -36 -45 4 -11 -4 -16 -32 -21 -28 -4 -42 -14 -54
-35 -12 -21 -22 -27 -34 -22 -17 6 -17 -4 0 -47 3 -8 2 -19 -2 -25 -11 -15
-70 -55 -81 -55 -10 0 -21 -24 -21 -46 0 -7 24 -43 53 -79 l52 -66 3 95 c3 93
3 95 35 122 28 24 37 26 91 21 45 -4 65 -11 77 -26 22 -26 23 -26 54 4 l25 26
256 -3 256 -3 24 -28 c35 -41 35 -133 -2 -176 -23 -28 -31 -30 -95 -33 l-70
-3 -2 -202 c-2 -198 -2 -202 -26 -227 -17 -18 -35 -26 -60 -26 -26 -1 -41 -7
-54 -25 -9 -13 -13 -26 -8 -29 5 -3 11 1 14 8 5 12 13 12 52 -3 26 -10 50 -22
53 -27 4 -5 26 -9 50 -9 25 1 47 -4 54 -13 7 -8 22 -18 35 -23 13 -5 23 -14
23 -22 0 -18 -38 -68 -76 -101 -18 -14 -35 -38 -38 -52 -10 -39 -86 -134 -107
-134 -31 0 -97 -43 -121 -80 -13 -19 -34 -40 -46 -46 -13 -6 -34 -21 -47 -34
-19 -18 -31 -21 -56 -16 -28 5 -30 4 -18 -10 12 -15 11 -19 -10 -32 -13 -9
-33 -18 -45 -19 -11 -2 -22 -8 -24 -13 -2 -6 -13 -10 -24 -10 -14 0 -18 -5
-14 -16 6 -17 -15 -44 -35 -44 -9 0 -9 -3 0 -14 10 -11 7 -17 -10 -29 -13 -10
-19 -22 -16 -31 13 -33 216 -12 382 39 295 90 564 314 713 594 33 62 122 300
122 327 0 3 -15 -5 -32 -18 -18 -12 -39 -22 -46 -20 -8 2 -20 -2 -29 -9 -12
-11 -17 -10 -24 4 -6 9 -8 18 -7 21 2 2 -6 13 -16 25 -11 12 -16 24 -13 28 4
3 -4 21 -18 39 -24 32 -25 37 -16 106 7 60 6 75 -6 85 -15 12 -9 78 8 89 5 3
9 15 9 27 0 13 7 33 16 46 9 13 18 47 20 75 2 28 4 53 5 56 3 12 6 26 7 43 1
9 10 17 19 17 16 0 63 45 63 60 0 4 -11 32 -24 61 l-23 54 -8 -33 c-4 -21 -2
-38 5 -47 18 -22 -17 -77 -45 -69 -11 4 -20 7 -21 8 -3 5 -45 123 -47 131 -1
6 13 9 31 9 17 -1 32 2 32 7 0 17 -52 84 -73 93 -20 8 -20 10 -4 13 15 4 16 7
5 21 -10 12 -10 14 0 8 7 -4 12 -2 12 4 0 6 5 8 10 5 14 -8 13 8 -1 22 -9 9
-17 7 -32 -7 -19 -19 -43 -18 -32 1 4 5 2 9 -4 9 -6 0 -13 11 -17 25 -3 13
-13 30 -22 37 -14 11 -15 10 -8 -7 13 -31 12 -47 -1 -52 -7 -3 -13 2 -13 10 0
8 -7 20 -16 28 -8 7 -13 20 -11 30 5 19 -26 73 -36 62 -4 -3 -7 1 -7 10 0 21
19 22 26 2 4 -8 12 -15 20 -15 8 0 14 -6 15 -12 1 -18 66 -71 73 -59 8 12
-137 149 -225 211 -41 28 -103 67 -139 85 -80 40 -192 86 -197 81 -6 -6 39
-46 51 -47 6 0 2 -4 -9 -9 -19 -8 -19 -9 3 -9 23 -1 26 -8 16 -35 -3 -8 -12
-12 -21 -9 -12 5 -14 1 -8 -16 5 -17 2 -24 -13 -28 -16 -4 -20 -12 -18 -44 1
-21 5 -41 9 -45 7 -8 10 -44 3 -44 -2 0 -20 7 -41 16 -55 23 -95 55 -95 76 0
11 -4 16 -10 13 -5 -3 -10 1 -10 10 0 9 -4 14 -8 11 -5 -3 -16 4 -26 15 -13
15 -14 24 -6 34 14 17 2 49 -15 35 -6 -5 -15 -7 -18 -3 -12 11 -8 21 11 26 11
3 7 7 -15 12 -18 4 -35 16 -38 26 -9 27 -59 59 -93 59 -17 0 -34 5 -37 10 -6
10 -38 11 -102 3z m-83 -64 c-17 -14 -26 -17 -28 -9 -5 14 16 30 38 30 10 -1
7 -7 -10 -21z m275 -26 c23 -25 32 -43 21 -43 -2 0 -23 16 -46 35 -34 28 -38
35 -21 35 11 0 32 -12 46 -27z m418 -96 c-4 -25 0 -37 20 -55 38 -36 81 -44
111 -21 13 10 29 19 35 19 20 0 111 -74 111 -90 0 -8 6 -27 14 -41 7 -14 16
-38 20 -54 11 -42 53 -92 84 -98 16 -3 34 -16 40 -29 6 -13 22 -35 34 -50 21
-27 21 -28 3 -48 -18 -20 -18 -22 0 -78 9 -31 28 -72 41 -91 30 -44 25 -99
-23 -241 -31 -91 -34 -109 -24 -137 7 -17 11 -60 9 -95 -2 -53 3 -74 31 -133
43 -91 65 -115 108 -115 31 0 33 -2 27 -28 -13 -50 -74 -186 -111 -247 -60
-97 -90 -136 -166 -214 -200 -206 -438 -321 -734 -356 -44 -5 -53 -3 -53 10 0
28 32 66 69 81 20 8 45 23 56 33 11 10 35 26 53 35 17 9 60 44 94 77 35 34 85
71 113 84 54 24 90 59 132 133 14 26 41 63 58 82 65 71 80 115 52 150 -23 29
-73 58 -112 65 -57 11 -58 12 -30 53 24 36 25 41 25 213 0 129 3 179 13 186 6
6 34 13 62 16 40 4 55 12 81 40 55 60 57 171 4 231 l-28 31 -244 5 c-133 3
-263 1 -288 -4 -25 -4 -52 -8 -60 -7 -8 1 -52 4 -97 7 -103 8 -109 29 -21 74
16 7 35 24 43 37 11 17 25 23 51 23 38 0 86 21 121 53 17 15 31 18 57 14 27
-4 38 -1 55 17 26 28 26 46 0 80 -11 14 -25 42 -30 61 -6 19 -24 47 -41 62
-17 16 -58 55 -90 87 l-60 60 11 37 c6 21 17 41 23 45 6 4 37 -21 72 -59 117
-125 222 -131 208 -12 -4 38 0 52 28 95 35 55 52 58 43 7z m124 -38 c-2 -22 1
-22 -48 -8 -21 7 -36 16 -33 20 3 5 -2 9 -10 9 -9 0 -16 5 -16 10 0 6 10 8 24
4 13 -3 27 -1 30 5 11 17 55 -17 53 -40z m-817 -84 c7 -8 18 -15 25 -15 26 0
52 -63 36 -88 -6 -11 -22 -7 -75 19 -71 35 -82 55 -43 82 28 20 41 21 57 2z
m463 -244 c-3 -13 2 -20 20 -25 16 -4 26 -15 29 -31 6 -31 -5 -40 -22 -20 -7
8 -28 15 -47 15 -19 0 -33 3 -31 8 3 4 11 22 18 40 15 34 42 45 33 13z"/>
<path d="M580 2299 c-413 -479 -397 -1180 37 -1640 200 -211 462 -338 776
-374 l59 -7 -16 24 c-14 22 -16 51 -5 63 3 3 4 26 3 52 -2 26 2 53 7 60 11 12
21 68 38 197 8 65 8 71 -12 88 -12 10 -31 20 -42 23 -19 6 -85 94 -85 114 0 5
-11 18 -23 28 -13 10 -29 29 -36 42 -11 19 -10 26 2 39 12 11 13 19 5 32 -9
14 -6 22 11 41 13 13 31 40 41 59 16 31 16 39 5 68 -15 34 -55 46 -55 17 0
-12 -4 -13 -19 -5 -31 16 -38 12 -33 -20 3 -23 -3 -36 -26 -60 -26 -26 -38
-30 -82 -30 -55 0 -87 12 -108 42 -13 18 -15 17 -42 -12 -25 -26 -35 -30 -84
-30 -47 0 -61 4 -88 29 l-33 29 -1 202 c-1 182 -3 204 -21 228 -19 27 -66 120
-79 157 -6 18 -8 18 -11 3 -5 -19 28 -115 55 -160 9 -15 13 -30 9 -34 -9 -9
-46 37 -47 57 0 9 -9 24 -20 34 -12 11 -18 25 -15 36 3 9 2 20 -3 23 -6 3 -13
26 -16 51 -4 25 -15 50 -25 57 -20 15 -41 91 -35 128 12 73 17 90 24 90 15 0
33 80 26 119 -3 23 -2 41 3 41 11 0 21 -25 21 -51 0 -10 5 -19 10 -19 15 0 12
33 -5 57 -20 28 -21 57 -6 121 7 29 11 55 8 58 -3 3 -33 -27 -67 -67z m0 -134
c0 -35 -7 -70 -19 -93 -43 -84 -44 -202 -2 -261 11 -15 27 -55 36 -90 20 -78
73 -165 114 -185 l30 -16 3 -184 c3 -181 3 -185 28 -212 49 -52 118 -66 194
-39 34 12 47 12 95 -1 97 -25 171 -1 206 67 9 16 20 29 25 29 18 0 10 -33 -17
-69 -35 -46 -43 -133 -16 -172 78 -116 120 -168 149 -187 47 -31 47 -56 -2
-254 -8 -32 -14 -75 -14 -96 0 -21 -6 -46 -13 -56 -12 -17 -17 -17 -100 -2
-91 17 -232 63 -302 98 -152 77 -319 218 -424 358 -267 357 -305 855 -95 1250
46 86 103 169 117 170 4 0 7 -25 7 -55z"/>
<path d="M833 1766 l-28 -24 0 -277 0 -277 28 -24 c37 -32 87 -32 124 0 l28
24 0 277 0 277 -28 24 c-18 15 -41 24 -62 24 -21 0 -44 -9 -62 -24z m116 -22
c20 -25 21 -39 21 -285 0 -246 -1 -260 -20 -279 -27 -27 -83 -27 -110 0 -20
20 -21 30 -18 291 3 255 4 271 22 285 33 23 82 18 105 -12z"/>
<path d="M1073 1780 c-12 -5 -26 -18 -32 -29 -12 -21 -16 -537 -5 -566 9 -21
56 -45 92 -45 17 0 40 9 53 19 22 18 24 28 29 150 l5 130 109 -140 c61 -77
118 -145 127 -150 40 -21 109 -6 136 30 9 12 12 89 13 283 0 263 0 267 -22
292 -15 16 -38 28 -64 32 -34 5 -45 2 -67 -17 -26 -23 -27 -27 -29 -153 l-2
-128 -27 33 c-16 19 -63 80 -106 136 -95 124 -140 151 -210 123z m91 -21 c13
-6 67 -66 120 -133 52 -66 106 -134 120 -151 l25 -30 1 143 c0 128 2 144 20
162 12 12 33 20 55 20 22 0 43 -8 55 -20 19 -19 20 -33 20 -283 0 -195 -3
-268 -13 -280 -18 -25 -81 -33 -109 -15 -13 9 -75 81 -138 161 -63 81 -118
147 -121 147 -3 0 -6 -66 -8 -147 -2 -124 -5 -150 -18 -160 -23 -18 -74 -16
-101 3 -22 15 -22 17 -22 289 0 272 0 274 22 289 26 19 58 20 92 5z"/>
<path d="M1658 1760 c-27 -27 -30 -36 -25 -72 8 -60 25 -72 115 -78 l77 -5 3
-212 2 -212 27 -20 c38 -31 88 -27 124 8 l29 29 0 206 0 206 74 0 c69 0 76 2
95 26 27 34 28 94 2 125 -19 24 -21 24 -255 27 l-237 3 -31 -31z m507 -10 c23
-26 23 -86 1 -109 -12 -11 -40 -17 -96 -19 l-80 -4 0 -209 c0 -196 -1 -210
-20 -229 -30 -30 -83 -27 -109 6 -20 25 -21 39 -21 230 l0 204 -70 0 c-62 0
-74 3 -95 25 -31 30 -33 77 -5 105 19 19 33 20 248 20 218 0 230 -1 247 -20z"/>
<path d="M1628 1478 c2 -74 0 -149 -6 -169 l-10 -37 26 14 c29 15 44 10 35
-11 -4 -11 -1 -13 10 -9 10 3 27 -6 45 -24 27 -28 72 -58 75 -50 1 2 0 89 -3
193 l-5 190 -67 3 c-43 2 -71 8 -78 17 -7 8 -16 15 -19 15 -4 0 -6 -60 -3
-132z m120 50 c13 -13 18 -248 6 -248 -15 0 -75 43 -84 60 -11 20 -14 159 -4
184 7 19 64 22 82 4z"/>
<path d="M1230 1318 c0 -43 15 -58 58 -58 l34 0 -38 43 c-49 54 -54 56 -54 15z"/>
</g>
</svg>
